<svg xmlns="http://www.w3.org/2000/svg" width="400" height="100" viewBox="0 0 400 100">
  <!-- Mandala Branch Icon -->
  <g transform="translate(0, 0)">
    <rect width="100" height="100" rx="10" fill="#f8f9fa"/>
    <circle cx="50" cy="35" r="15" fill="#ff6b6b"/>
    <rect x="30" y="55" width="40" height="25" rx="5" fill="#4dabf7"/>
    <rect x="45" y="80" width="10" height="10" fill="#4dabf7"/>
    <text x="50" y="70" font-family="Arial" font-size="10" text-anchor="middle" fill="white">24/7</text>
  </g>
  
  <!-- Katarungan Branch Icon -->
  <g transform="translate(100, 0)">
    <rect width="100" height="100" rx="10" fill="#f8f9fa"/>
    <path d="M50,20 L65,45 L35,45 Z" fill="#82c91e"/>
    <circle cx="50" cy="65" r="15" fill="#82c91e" opacity="0.7"/>
    <text x="50" y="70" font-family="Arial" font-size="10" text-anchor="middle" fill="white">Spay</text>
  </g>
  
  <!-- Rockwell Branch Icon -->
  <g transform="translate(200, 0)">
    <rect width="100" height="100" rx="10" fill="#f8f9fa"/>
    <rect x="35" y="25" width="30" height="50" rx="5" fill="#845ef7"/>
    <rect x="40" y="35" width="20" height="10" rx="2" fill="white"/>
    <rect x="40" y="55" width="20" height="10" rx="2" fill="white"/>
    <circle cx="50" cy="80" r="5" fill="#845ef7"/>
  </g>
  
  <!-- Alfonso Branch Icon -->
  <g transform="translate(300, 0)">
    <rect width="100" height="100" rx="10" fill="#f8f9fa"/>
    <circle cx="50" cy="40" r="20" fill="#fcc419" opacity="0.8"/>
    <path d="M30,70 L70,70 L50,90 Z" fill="#51cf66"/>
    <circle cx="50" cy="40" r="10" fill="#f8f9fa"/>
  </g>
</svg>